<svg xmlns="http://www.w3.org/2000/svg" viewBox="0 0 32 32" id="Indian">
  <path fill="#44bb8d" d="M.5 7.5v17h31v-17zM5 9h22v.5c0 1.387 1.113 2.5 2.5 2.5h.5v8h-.5a2.492 2.492 0 0 0-2.5 2.5v.5H5v-.5C5 21.114 3.887 20 2.5 20H2v-8h.5C3.887 12 5 10.887 5 9.5z" class="color4bbfeb svgShape"></path>
  <path d="M5 1029.361v.5c0 1.387-1.113 2.5-2.5 2.5H2v8h.5c1.387 0 2.5 1.114 2.5 2.5v.5h22v-.5c0-1.386 1.113-2.5 2.5-2.5h.5v-8h-.5a2.492 2.492 0 0 1-2.5-2.5v-.5H5zm.898 1h20.204A3.425 3.425 0 0 0 29 1033.26v6.203a3.426 3.426 0 0 0-2.898 2.898H5.898A3.426 3.426 0 0 0 3 1039.463v-6.203a3.425 3.425 0 0 0 2.898-2.899z" color="#000" font-family="sans-serif" font-weight="400" overflow="visible" style="line-height:normal;text-indent:0;text-align:start;text-decoration-line:none;text-decoration-style:solid;text-decoration-color:#000;text-transform:none;block-progression:tb;isolation:auto;mix-blend-mode:normal" transform="translate(0 -1020.362)" fill="#000000" class="color000000 svgShape"></path>
  <path fill="#4ef8b6" d="M6.693 11A4.48 4.48 0 0 1 4 13.694v4.613A4.478 4.478 0 0 1 6.693 21h18.614A4.478 4.478 0 0 1 28 18.307v-4.613A4.48 4.48 0 0 1 25.307 11H6.693z" class="colorf8b84e svgShape"></path>
  <path d="M6 1035.361c-.546 0-1 .454-1 1 0 .547.454 1 1 1s1-.453 1-1c0-.546-.454-1-1-1zm20 0c-.546 0-1 .454-1 1 0 .547.454 1 1 1s1-.453 1-1c0-.546-.454-1-1-1z" color="#000" font-family="sans-serif" font-weight="400" overflow="visible" style="line-height:normal;text-indent:0;text-align:start;text-decoration-line:none;text-decoration-style:solid;text-decoration-color:#000;text-transform:none;block-progression:tb;isolation:auto;mix-blend-mode:normal" transform="translate(0 -1020.362)" fill="#000000" class="color000000 svgShape"></path>
  <path fill-rule="evenodd" d="M13.527 12v.01h-.023v1h1.027c.933 0 1.405.441 1.574.99h-2.578v1h2.578c-.169.549-.64.992-1.574.992h-.32l-.004-.004-.004.004h-.7v1h.296L16.849 20l.704-.71-2.395-2.364c1.085-.228 1.781-1.035 1.973-1.926h1.365v-1h-1.365c-.078-.36-.246-.7-.48-1h1.845v-1h-4.969z" color="#000" font-family="sans-serif" font-weight="400" overflow="visible" style="line-height:normal;text-indent:0;text-align:start;text-decoration-line:none;text-decoration-style:solid;text-decoration-color:#000;text-transform:none;block-progression:tb;isolation:auto;mix-blend-mode:normal" fill="#000000" class="color000000 svgShape"></path>
  <path d="M0 1027.361v18h32v-18H0zm1 1h30v16H1v-16z" color="#000" font-family="sans-serif" font-weight="400" overflow="visible" style="line-height:normal;text-indent:0;text-align:start;text-decoration-line:none;text-decoration-style:solid;text-decoration-color:#000;text-transform:none;block-progression:tb;isolation:auto;mix-blend-mode:normal" transform="translate(0 -1020.362)" fill="#000000" class="color000000 svgShape"></path>
</svg>
